<?xml version="1.0" standalone="no"?><!DOCTYPE svg PUBLIC "-//W3C//DTD SVG 1.1//EN" "http://www.w3.org/Graphics/SVG/1.1/DTD/svg11.dtd"><svg t="1555087424019" class="icon" style="" viewBox="0 0 1024 1024" version="1.1" xmlns="http://www.w3.org/2000/svg" p-id="3054" xmlns:xlink="http://www.w3.org/1999/xlink" width="200" height="200"><defs><style type="text/css"></style></defs><path d="M511.997 597.333c125.778 0 241.87-109.881 254.883-270.586C780.487 158.596 668.816 0 511.997 0 355.184 0 243.506 158.596 257.124 326.747 270.131 487.452 386.225 597.333 511.997 597.333zM509.719 684.073C228.208 684.073 0 796.019 0 934.112c0 47.221 43.411 65.423 171.081 79.221C269.777 1024 387.61 1024 512 1024c127.414 0 253.777 0 342.675-10.667 125.756-15.09 169.325-32 169.325-79.221C1024 796.019 791.22 684.073 509.719 684.073z" p-id="3055"></path></svg>